<?xml version="1.0" encoding="UTF-8" standalone="no"?>
<!-- Created with Inkscape (http://www.inkscape.org/) -->

<svg
   width="84.666664mm"
   height="84.666664mm"
   viewBox="0 0 84.666664 84.666664"
   version="1.1"
   id="svg5"
   xml:space="preserve"
   sodipodi:docname="omnikron-white.svg"
   inkscape:version="1.2.1 (9c6d41e, 2022-07-14)"
   xmlns:inkscape="http://www.inkscape.org/namespaces/inkscape"
   xmlns:sodipodi="http://sodipodi.sourceforge.net/DTD/sodipodi-0.dtd"
   xmlns="http://www.w3.org/2000/svg"
   xmlns:svg="http://www.w3.org/2000/svg"><sodipodi:namedview
     id="namedview7"
     pagecolor="#ffffff"
     bordercolor="#000000"
     borderopacity="0.25"
     inkscape:showpageshadow="2"
     inkscape:pageopacity="0.0"
     inkscape:pagecheckerboard="0"
     inkscape:deskcolor="#d1d1d1"
     inkscape:document-units="mm"
     showgrid="false"
     inkscape:zoom="2.587745"
     inkscape:cx="157.47301"
     inkscape:cy="196.1167"
     inkscape:window-width="3440"
     inkscape:window-height="1319"
     inkscape:window-x="0"
     inkscape:window-y="30"
     inkscape:window-maximized="1"
     inkscape:current-layer="layer1" /><defs
     id="defs2"><filter
       style="color-interpolation-filters:sRGB;"
       inkscape:label="Clean Edges"
       id="filter1866"
       x="-0.006249635"
       y="-0.0036062019"
       width="1.0124993"
       height="1.0072124"><feGaussianBlur
         stdDeviation="0.35"
         result="blur"
         id="feGaussianBlur1860" /><feComposite
         in="SourceGraphic"
         in2="blur"
         operator="in"
         result="composite1"
         id="feComposite1862" /><feComposite
         in="composite1"
         in2="composite1"
         k2="1"
         operator="in"
         result="composite2"
         id="feComposite1864" /></filter><filter
       style="color-interpolation-filters:sRGB;"
       inkscape:label="Clean Edges"
       id="filter1874"
       x="-0.0045691965"
       y="-0.0078720527"
       width="1.0091384"
       height="1.0157441"><feGaussianBlur
         stdDeviation="0.35"
         result="blur"
         id="feGaussianBlur1868" /><feComposite
         in="SourceGraphic"
         in2="blur"
         operator="in"
         result="composite1"
         id="feComposite1870" /><feComposite
         in="composite1"
         in2="composite1"
         k2="1"
         operator="in"
         result="composite2"
         id="feComposite1872" /></filter><filter
       style="color-interpolation-filters:sRGB;"
       inkscape:label="Clean Edges"
       id="filter1882"
       x="-0.0062504475"
       y="-0.003615227"
       width="1.0125009"
       height="1.0072305"><feGaussianBlur
         stdDeviation="0.35"
         result="blur"
         id="feGaussianBlur1876" /><feComposite
         in="SourceGraphic"
         in2="blur"
         operator="in"
         result="composite1"
         id="feComposite1878" /><feComposite
         in="composite1"
         in2="composite1"
         k2="1"
         operator="in"
         result="composite2"
         id="feComposite1880" /></filter><filter
       style="color-interpolation-filters:sRGB;"
       inkscape:label="Clean Edges"
       id="filter1890"
       x="-0.0091017324"
       y="-0.0052546811"
       width="1.0182035"
       height="1.0105094"><feGaussianBlur
         stdDeviation="0.35"
         result="blur"
         id="feGaussianBlur1884" /><feComposite
         in="SourceGraphic"
         in2="blur"
         operator="in"
         result="composite1"
         id="feComposite1886" /><feComposite
         in="composite1"
         in2="composite1"
         k2="1"
         operator="in"
         result="composite2"
         id="feComposite1888" /></filter><filter
       style="color-interpolation-filters:sRGB;"
       inkscape:label="Clean Edges"
       id="filter1898"
       x="-0.0091014681"
       y="-0.0052544996"
       width="1.0182029"
       height="1.010509"><feGaussianBlur
         stdDeviation="0.35"
         result="blur"
         id="feGaussianBlur1892" /><feComposite
         in="SourceGraphic"
         in2="blur"
         operator="in"
         result="composite1"
         id="feComposite1894" /><feComposite
         in="composite1"
         in2="composite1"
         k2="1"
         operator="in"
         result="composite2"
         id="feComposite1896" /></filter><filter
       style="color-interpolation-filters:sRGB;"
       inkscape:label="Clean Edges"
       id="filter1906"
       x="-0.0031330754"
       y="-0.0093375985"
       width="1.0062662"
       height="1.0186752"><feGaussianBlur
         stdDeviation="0.35"
         result="blur"
         id="feGaussianBlur1900" /><feComposite
         in="SourceGraphic"
         in2="blur"
         operator="in"
         result="composite1"
         id="feComposite1902" /><feComposite
         in="composite1"
         in2="composite1"
         k2="1"
         operator="in"
         result="composite2"
         id="feComposite1904" /></filter></defs><g
     inkscape:label="Layer 1"
     inkscape:groupmode="layer"
     id="layer1"
     transform="translate(-52.810772,-86.93541)"><path
       style="display:inline;fill:#ffffff;stroke-width:0.386437;filter:url(#filter1906)"
       d="m 36.228454,87.223515 c -5.685452,-3.312866 -10.337185,-6.126821 -10.337185,-6.253233 0,-0.126407 19.954632,-11.740276 44.343628,-25.808586 C 94.623892,41.09338 124.80248,23.675318 137.29843,16.45489 l 22.7199,-13.1280516 9.54757,5.5211904 c 24.20974,14.0000562 117.75109,67.9746042 120.95287,69.7913472 1.97418,1.120177 3.53925,2.184455 3.47793,2.365064 -0.0613,0.180605 -4.80669,3.036365 -10.54527,6.346131 -10.02662,5.782912 -10.4715,5.995877 -11.39989,5.457149 C 271.52019,92.49939 249.17448,79.599614 222.3944,64.141557 195.61433,48.683499 170.69847,34.29967 167.02582,32.177491 c -3.86007,-2.230478 -6.95802,-3.783022 -7.3423,-3.679603 -0.36562,0.0984 -25.84751,14.724637 -56.62644,32.502756 -30.778925,17.77812 -56.080879,32.306395 -56.226562,32.28506 -0.145683,-0.02134 -4.916612,-2.749324 -10.602064,-6.062189 z"
       id="path504"
       transform="matrix(0.26458333,0,0,0.26458333,52.810772,86.93541)" /><path
       style="fill:#ffffff;stroke-width:0.386437;filter:url(#filter1898)"
       d="m 63.857327,158.22222 0.09797,-53.3806 45.985983,-26.550891 45.98599,-26.550893 0.098,53.141244 c 0.0778,42.1945 -0.002,53.2354 -0.38644,53.59833 -0.38994,0.36794 -87.923125,51.01667 -91.00861,52.65969 l -0.870845,0.46372 z"
       id="path506"
       transform="matrix(0.26458333,0,0,0.26458333,52.810772,86.93541)" /><path
       style="fill:#ffffff;stroke-width:0.386437;filter:url(#filter1890)"
       d="m 210.39345,185.2491 c -25.06798,-14.47879 -45.79612,-26.52795 -46.06255,-26.77592 -0.38466,-0.35801 -0.46424,-11.39726 -0.38644,-53.60366 l 0.098,-53.152813 43.08771,24.870589 c 23.69824,13.678825 44.43541,25.651354 46.08259,26.605614 l 2.99489,1.73501 v 53.32313 c 0,29.32772 -0.0531,53.32312 -0.11803,53.32312 -0.0649,0 -20.62818,-11.84628 -45.69615,-26.32507 z"
       id="path508"
       transform="matrix(0.26458333,0,0,0.26458333,52.810772,86.93541)" /><path
       style="fill:#ffffff;stroke-width:0.386437;filter:url(#filter1882)"
       d="m 161.54147,304.07053 0.0109,-12.31071 56.3123,-32.47589 56.31231,-32.4759 0.20859,-65.19206 c 0.14267,-44.59273 0.33632,-65.319798 0.61283,-65.596312 0.22234,-0.222337 4.99758,-3.059872 10.61164,-6.305634 l 10.20741,-5.901384 0.0976,77.4824 c 0.0537,42.61531 -0.0333,77.60671 -0.19322,77.75866 -0.40492,0.38471 -132.77676,76.7848 -133.55747,77.08439 -0.57923,0.22227 -0.63273,-0.81442 -0.6228,-12.06756 z"
       id="path510"
       transform="matrix(0.26458333,0,0,0.26458333,52.810772,86.93541)" /><path
       style="fill:#ffffff;stroke-width:0.386437;filter:url(#filter1874)"
       d="m 140.85623,260.43537 c -10.41447,-6.03929 -31.06469,-17.97181 -45.889375,-26.51671 -14.824684,-8.5449 -26.95397,-15.6589 -26.95397,-15.80889 0,-0.14998 2.391078,-1.65283 5.313507,-3.33966 2.922428,-1.68683 23.620733,-13.63427 45.996228,-26.54988 l 40.68273,-23.48292 27.33016,15.77702 c 15.03159,8.67736 35.67101,20.58827 45.86538,26.46868 10.19436,5.88041 18.58742,10.84826 18.65122,11.03967 0.0638,0.19141 -5.58165,3.63429 -12.54545,7.65085 -6.96379,4.01655 -27.66069,15.96432 -45.99309,26.55059 -18.3324,10.58627 -33.37445,19.23517 -33.42679,19.21977 -0.0523,-0.0154 -8.61608,-4.96923 -19.03055,-11.00852 z"
       id="path512"
       transform="matrix(0.26458333,0,0,0.26458333,52.810772,86.93541)" /><path
       style="fill:#ffffff;stroke-width:0.386437;filter:url(#filter1866)"
       d="m 91.199096,277.78039 -67.046793,-38.72512 -0.09755,-77.74091 -0.09755,-77.740908 0.870427,0.561965 c 0.478735,0.309081 5.347763,3.143461 10.820063,6.298623 l 9.949636,5.736658 0.09772,65.298612 0.09772,65.2986 56.033341,32.37509 c 30.81834,17.8063 56.16623,32.4303 56.32865,32.49778 0.16241,0.0675 0.24936,5.68965 0.19322,12.49371 l -0.10209,12.37101 z"
       id="path514"
       transform="matrix(0.26458333,0,0,0.26458333,52.810772,86.93541)" /></g></svg>
